<?xml version="1.0" encoding="utf-8"?>
<!-- Generator: Adobe Illustrator 22.1.0, SVG Export Plug-In . SVG Version: 6.00 Build 0)  -->
<svg version="1.1" id="Laag_1" xmlns="http://www.w3.org/2000/svg" xmlns:xlink="http://www.w3.org/1999/xlink" x="0px" y="0px"
	 viewBox="0 0 300 80" style="enable-background:new 0 0 300 80;" xml:space="preserve">
<style type="text/css">
	.st0{fill:#FFFFFF;}
</style>
<g id="Laag_x0020_1">
	<g id="_2896585446880">
		<g>
			<path class="st0" d="M189,67.3h-2v-3h-2v3h-2v-6h5.9V67.3z M185.1,70.2h2v-1h2.9c0.6,0,1-0.4,1-1v-7.9c0-0.5-0.4-1-1-1h-7.9
				c-0.5,0-1,0.5-1,1v7.9c0,0.5,0.4,1,1,1h3V70.2z"/>
			<path class="st0" d="M202.9,67.3h-5.9v-7.9h-2v8.9c0,0.5,0.5,1,1,1h7.9c0.6,0,1-0.4,1-1v-8.9h-2V67.3z"/>
			<path class="st0" d="M216.6,63.3h-5.9v-2h5.9V63.3z M217.6,59.3h-7.9c-0.6,0-1,0.5-1,1v8.9h2v-3.9h5.9v3.9h2v-8.9
				C218.6,59.8,218.2,59.3,217.6,59.3z"/>
			<path class="st0" d="M230.4,66.6l-0.7,0.7h-5.2v-6h5.2l0.7,0.7V66.6z M222.6,59.3v9.9h8.1l1.8-1.8v-6.3l-1.8-1.8H222.6z"/>
			<path class="st0" d="M244.2,63.3h-5.9v-2.1h5.9V63.3z M245.2,59.3h-8.8v9.9h2v-3.9h2.4l2.9,3.9h2.5l-2.9-3.9h2c0.6,0,1-0.4,1-1
				v-4C246.2,59.8,245.8,59.3,245.2,59.3z"/>
			<path class="st0" d="M258,63.3h-5.9v-2h5.9V63.3z M259,59.3h-7.9c-0.6,0-1,0.5-1,1v8.9h2v-3.9h5.9v3.9h2v-8.9
				C260,59.8,259.6,59.3,259,59.3z"/>
			<path class="st0" d="M271.8,63.3h-5.9v-2h5.9V63.3z M272.8,59.3h-7.9c-0.6,0-1,0.5-1,1v8.9h2v-3.9h5.9v3.9h2v-8.9
				C273.8,59.8,273.4,59.3,272.8,59.3z"/>
			<path class="st0" d="M286.6,59.3h-7.9c-0.5,0-1,0.5-1,1v8.9h2v-7.9h2v6h2v-6h2v7.9h2v-8.9C287.6,59.8,287.2,59.3,286.6,59.3z"/>
		</g>
		<path class="st0" d="M246.2,39h16v-2.7c-5.2-1.2-10.6-2-16-2.2V39z"/>
		<path class="st0" d="M262.2,22.9h-16v8.5c5.4,0.2,10.8,0.9,16,2.1V22.9z"/>
		<polygon class="st0" points="257.8,48.9 264.3,48.9 264.3,42.5 257.8,42.5 		"/>
		<path class="st0" d="M267.1,37.6v13.5h20.5v-6.5c-3.8-1.6-8.4-2.6-12.6-4.2C272.4,39.3,269.8,38.4,267.1,37.6z"/>
		<path class="st0" d="M287.6,41.6v-11h-20.5v4.2c3,0.9,6,1.9,9,3C279.5,39.2,283.7,40.1,287.6,41.6z"/>
		<path class="st0" d="M46,43.6h-9V31.2h-7.5v12.4h-9.6V17.1H46V43.6z M53.8,13.6c0-2-2-3.7-4.1-3.7H16.1c-2.1,0-3.7,1.6-3.7,3.7
			v33.6c0,2.1,1.6,3.7,3.7,3.7h13.4v4.1H37v-4.1h12.7c2.1,0,3.8-1.6,3.8-3.7L53.8,13.6z"/>
		<path class="st0" d="M65.5,35.4L65.5,35.4c0.4-0.8,1-1.4,1.9-2c0.9-0.6,2-0.9,3.4-0.9c1.2,0,2.2,0.2,3.1,0.6
			c0.8,0.4,1.5,0.9,2,1.6c0.5,0.7,0.9,1.4,1.1,2.2s0.3,1.7,0.3,2.7v11.3h-4.5v-9.1c0-0.5,0-1-0.1-1.7c0-0.6-0.2-1.2-0.4-1.7
			c-0.2-0.5-0.5-1-1-1.4c-0.4-0.4-1-0.5-1.8-0.5s-1.4,0.1-1.9,0.4c-0.5,0.3-0.9,0.6-1.3,1c-0.3,0.4-0.6,0.9-0.7,1.4
			c-0.1,0.6-0.2,1.1-0.2,1.7v9.8H61V22.5h4.5V35.4z M81.8,32.9h4.5v18h-4.5V32.9z M81.2,26.8c0-0.7,0.3-1.4,0.8-1.9
			c0.5-0.5,1.2-0.8,2-0.8c0.8,0,1.5,0.3,2.1,0.8c0.5,0.5,0.8,1.1,0.8,1.9c0,0.8-0.3,1.4-0.8,1.9c-0.6,0.5-1.3,0.8-2.1,0.8
			c-0.8,0-1.5-0.3-2-0.8C81.5,28.1,81.2,27.5,81.2,26.8z M109.3,32.9v16.4c0,1.6-0.2,3.1-0.6,4.4c-0.4,1.3-1,2.4-1.8,3.3
			c-0.9,0.9-1.9,1.6-3.2,2.1s-2.8,0.8-4.5,0.8c-1.7,0-3.3-0.2-4.8-0.7c-1.5-0.4-2.9-1.2-4.1-2.3l2.7-3.7c0.9,0.8,1.8,1.4,2.8,1.9
			s2.1,0.7,3.4,0.7c1.1,0,2-0.1,2.7-0.5c0.7-0.3,1.3-0.7,1.8-1.2c0.4-0.5,0.7-1.1,0.9-1.9c0.2-0.7,0.3-1.6,0.3-2.5v-1.3h-0.1
			c-0.7,0.9-1.5,1.5-2.6,2c-1.1,0.5-2.2,0.7-3.3,0.7c-1.4,0-2.6-0.2-3.7-0.7c-1.1-0.5-2-1.2-2.8-2c-0.8-0.8-1.4-1.8-1.8-2.9
			c-0.4-1.1-0.6-2.3-0.6-3.6c0-1.3,0.2-2.6,0.6-3.7c0.4-1.1,1-2.1,1.8-3c0.8-0.9,1.7-1.5,2.8-2c1.1-0.5,2.3-0.7,3.7-0.7
			c1.3,0,2.5,0.3,3.6,0.8c1.1,0.5,2,1.3,2.6,2.4h0.1v-2.7H109.3z M99.7,36.5c-0.8,0-1.5,0.1-2.2,0.4c-0.6,0.3-1.2,0.6-1.6,1.1
			c-0.5,0.5-0.8,1-1.1,1.7c-0.3,0.7-0.4,1.4-0.4,2.2c0,0.7,0.1,1.4,0.4,2c0.3,0.6,0.7,1.2,1.1,1.6c0.5,0.5,1,0.9,1.7,1.1
			c0.7,0.3,1.3,0.4,2.1,0.4c0.8,0,1.6-0.1,2.2-0.4c0.7-0.3,1.2-0.7,1.7-1.1c0.5-0.5,0.8-1,1.1-1.7c0.2-0.7,0.4-1.3,0.4-2.1
			c0-1.6-0.5-2.8-1.4-3.8C102.7,36.9,101.4,36.5,99.7,36.5z M118.6,35.4L118.6,35.4c0.4-0.8,1-1.4,1.9-2c0.9-0.6,2-0.9,3.4-0.9
			c1.2,0,2.2,0.2,3.1,0.6c0.8,0.4,1.5,0.9,2,1.6c0.5,0.7,0.9,1.4,1.1,2.2s0.3,1.7,0.3,2.7v11.3H126v-9.1c0-0.5,0-1-0.1-1.7
			c-0.1-0.6-0.2-1.2-0.4-1.7c-0.2-0.5-0.5-1-1-1.4c-0.5-0.4-1-0.5-1.8-0.5c-0.7,0-1.4,0.1-1.9,0.4c-0.5,0.3-0.9,0.6-1.3,1
			c-0.3,0.4-0.6,0.9-0.7,1.4c-0.1,0.6-0.2,1.1-0.2,1.7v9.8h-4.5V22.5h4.5V35.4z M144.8,37.8c-0.9-1.2-2-1.8-3.5-1.8
			c-0.6,0-1.2,0.1-1.8,0.5c-0.6,0.3-0.9,0.8-0.9,1.5c0,0.5,0.2,0.9,0.7,1.2c0.5,0.3,1.1,0.5,1.8,0.6c0.7,0.2,1.5,0.4,2.4,0.5
			c0.8,0.2,1.6,0.5,2.3,0.9c0.7,0.4,1.3,0.9,1.8,1.6c0.5,0.7,0.7,1.6,0.7,2.8c0,1.1-0.2,2-0.7,2.7c-0.5,0.7-1,1.3-1.8,1.8
			c-0.7,0.5-1.6,0.8-2.5,1c-0.9,0.2-1.8,0.3-2.8,0.3c-1.4,0-2.7-0.2-3.9-0.6c-1.2-0.4-2.2-1.1-3.1-2.2l3-2.8
			c0.6,0.7,1.2,1.2,1.8,1.6c0.7,0.4,1.5,0.6,2.4,0.6c0.3,0,0.7,0,1-0.1c0.4-0.1,0.7-0.2,1-0.4c0.3-0.2,0.5-0.4,0.7-0.7
			c0.2-0.3,0.3-0.6,0.3-0.9c0-0.6-0.2-1.1-0.7-1.4c-0.5-0.3-1.1-0.5-1.8-0.7c-0.7-0.2-1.5-0.4-2.4-0.5c-0.8-0.1-1.6-0.4-2.3-0.8
			c-0.7-0.4-1.3-0.9-1.8-1.5c-0.5-0.7-0.7-1.5-0.7-2.7c0-1,0.2-1.9,0.6-2.6c0.4-0.7,1-1.3,1.6-1.8c0.7-0.5,1.4-0.8,2.3-1
			c0.9-0.2,1.8-0.3,2.7-0.3c1.2,0,2.4,0.2,3.6,0.6c1.2,0.4,2.1,1.1,2.8,2.1L144.8,37.8z M163.8,38.2c-0.5-0.5-1-1-1.6-1.3
			c-0.6-0.3-1.2-0.5-1.8-0.5c-0.8,0-1.6,0.1-2.2,0.5c-0.7,0.3-1.2,0.7-1.7,1.2c-0.5,0.5-0.8,1.1-1,1.7c-0.2,0.7-0.3,1.3-0.3,2
			c0,0.7,0.1,1.4,0.3,2c0.3,0.7,0.6,1.2,1,1.7c0.5,0.5,1,0.9,1.7,1.2c0.7,0.3,1.4,0.5,2.2,0.5c0.7,0,1.4-0.2,2-0.5
			c0.6-0.3,1.1-0.7,1.5-1.2l3,3.2c-0.5,0.5-1,0.8-1.6,1.2c-0.6,0.3-1.2,0.6-1.8,0.8c-0.6,0.2-1.2,0.4-1.7,0.5
			c-0.5,0.1-1,0.1-1.4,0.1c-1.3,0-2.6-0.2-3.8-0.7c-1.2-0.4-2.2-1.1-3.1-1.9s-1.6-1.8-2.1-3c-0.5-1.2-0.8-2.5-0.8-3.9
			c0-1.4,0.3-2.7,0.8-3.9c0.5-1.1,1.2-2.1,2.1-3c0.9-0.8,1.9-1.4,3.1-1.9c1.2-0.5,2.5-0.7,3.8-0.7c1.2,0,2.3,0.2,3.5,0.7
			c1.2,0.5,2.2,1.1,3.1,2.1L163.8,38.2z M173.8,35.4L173.8,35.4c0.4-0.8,1-1.4,1.9-2c0.9-0.6,2-0.9,3.4-0.9c1.2,0,2.2,0.2,3,0.6
			c0.9,0.4,1.5,0.9,2,1.6c0.5,0.7,0.9,1.4,1.1,2.2s0.3,1.7,0.3,2.7v11.3h-4.5v-9.1c0-0.5,0-1-0.1-1.7c-0.1-0.6-0.2-1.2-0.4-1.7
			c-0.2-0.5-0.5-1-1-1.4c-0.5-0.4-1.1-0.5-1.8-0.5c-0.7,0-1.4,0.1-1.9,0.4c-0.5,0.3-0.9,0.6-1.3,1c-0.3,0.4-0.6,0.9-0.7,1.4
			c-0.2,0.6-0.2,1.1-0.2,1.7v9.8h-4.5V22.5h4.5V35.4z M188.6,41.8c0-1.4,0.3-2.7,0.8-3.9c0.5-1.1,1.2-2.1,2.1-3
			c0.9-0.8,1.9-1.4,3.1-1.9c1.2-0.5,2.5-0.7,3.8-0.7c1.4,0,2.6,0.2,3.8,0.7c1.2,0.5,2.2,1.1,3.1,1.9c0.9,0.9,1.6,1.8,2.1,3
			c0.5,1.2,0.8,2.5,0.8,3.9c0,1.4-0.3,2.7-0.8,3.9c-0.5,1.2-1.2,2.2-2.1,3c-0.9,0.8-1.9,1.5-3.1,1.9c-1.2,0.5-2.5,0.7-3.8,0.7
			c-1.3,0-2.6-0.2-3.8-0.7c-1.2-0.4-2.2-1.1-3.1-1.9c-0.9-0.8-1.6-1.8-2.1-3C188.9,44.6,188.6,43.3,188.6,41.8z M193.1,41.8
			c0,0.7,0.1,1.4,0.3,2c0.3,0.7,0.6,1.2,1,1.7c0.5,0.5,1,0.9,1.7,1.2c0.7,0.3,1.4,0.5,2.2,0.5s1.6-0.2,2.2-0.5
			c0.7-0.3,1.2-0.7,1.7-1.2c0.5-0.5,0.8-1,1-1.7c0.2-0.7,0.3-1.3,0.3-2c0-0.7-0.1-1.4-0.3-2c-0.2-0.7-0.6-1.2-1-1.7
			c-0.5-0.5-1-0.9-1.7-1.2c-0.7-0.3-1.4-0.5-2.2-0.5s-1.6,0.1-2.2,0.5c-0.7,0.3-1.2,0.7-1.7,1.2c-0.5,0.5-0.8,1.1-1,1.7
			C193.2,40.5,193.1,41.2,193.1,41.8z M211.2,41.8c0-1.4,0.3-2.7,0.8-3.9c0.5-1.1,1.2-2.1,2.1-3c0.9-0.8,1.9-1.4,3.1-1.9
			c1.2-0.5,2.5-0.7,3.8-0.7c1.4,0,2.6,0.2,3.8,0.7s2.2,1.1,3.1,1.9c0.9,0.9,1.6,1.8,2.1,3c0.5,1.2,0.8,2.5,0.8,3.9
			c0,1.4-0.3,2.7-0.8,3.9c-0.5,1.2-1.2,2.2-2.1,3s-1.9,1.5-3.1,1.9c-1.2,0.5-2.5,0.7-3.8,0.7c-1.3,0-2.6-0.2-3.8-0.7
			c-1.2-0.4-2.2-1.1-3.1-1.9c-0.9-0.8-1.6-1.8-2.1-3C211.4,44.6,211.2,43.3,211.2,41.8z M215.6,41.8c0,0.7,0.1,1.4,0.4,2
			c0.2,0.7,0.6,1.2,1,1.7c0.5,0.5,1,0.9,1.6,1.2c0.7,0.3,1.4,0.5,2.2,0.5c0.9,0,1.6-0.2,2.2-0.5c0.7-0.3,1.2-0.7,1.7-1.2
			c0.5-0.5,0.8-1,1-1.7c0.3-0.7,0.4-1.3,0.4-2c0-0.7-0.1-1.4-0.4-2c-0.2-0.7-0.6-1.2-1-1.7c-0.5-0.5-1-0.9-1.7-1.2
			c-0.7-0.3-1.4-0.5-2.2-0.5c-0.8,0-1.6,0.1-2.2,0.5c-0.6,0.3-1.2,0.7-1.6,1.2c-0.5,0.5-0.8,1.1-1,1.7
			C215.8,40.5,215.6,41.2,215.6,41.8z M233.9,22.5h4.5v28.3h-4.5V22.5z"/>
	</g>
</g>
</svg>
