<?xml version="1.0" encoding="UTF-8" standalone="no"?>
<svg
   xmlns:dc="http://purl.org/dc/elements/1.1/"
   xmlns:cc="http://creativecommons.org/ns#"
   xmlns:rdf="http://www.w3.org/1999/02/22-rdf-syntax-ns#"
   xmlns:svg="http://www.w3.org/2000/svg"
   xmlns="http://www.w3.org/2000/svg"
   id="svg5252"
   version="1.1"
   viewBox="0 0 44.374294 33.733612"
   height="33.733612mm"
   width="44.374294mm">
  <defs
     id="defs5246" />
  <metadata
     id="metadata5249">
    <rdf:RDF>
      <cc:Work
         rdf:about="">
        <dc:format>image/svg+xml</dc:format>
        <dc:type
           rdf:resource="http://purl.org/dc/dcmitype/StillImage" />
        <dc:title></dc:title>
      </cc:Work>
    </rdf:RDF>
  </metadata>
  <g
     transform="translate(-58.699757,-82.273666)"
     id="layer1">
    <g
       transform="matrix(0.35277777,0,0,-0.35277777,-1.4004514,141.34967)"
       id="g4253">
      <path
         id="path4255"
         style="fill:#a2273a;fill-opacity:1;fill-rule:evenodd;stroke:none"
         d="m 179.6805,116.6927 h -6.9882 v -7.1583 h 2.3292 v 3.5705 h 2.3295 v -3.5705 h 2.3295 z m 1.156,-9.4561 h -3.4855 v -1.1661 h -2.3295 v 1.1661 h -3.5028 c -0.648,0 -1.1559,0.5128 -1.1559,1.1668 v 9.4031 c 0,0.6718 0.5079,1.184 1.1559,1.184 h 9.3178 c 0.6653,0 1.1733,-0.5122 1.1733,-1.184 v -9.4031 c 0,-0.654 -0.508,-1.1668 -1.1733,-1.1668" />
      <path
         id="path4257"
         style="fill:#a2273a;fill-opacity:1;fill-rule:evenodd;stroke:none"
         d="m 197.1422,107.2366 h -9.3174 c -0.648,0 -1.156,0.5128 -1.156,1.1668 v 10.5871 h 2.3295 v -9.4561 h 6.988 v 9.4561 h 2.3295 v -10.5871 c 0,-0.654 -0.508,-1.1668 -1.1736,-1.1668" />
      <path
         id="path4259"
         style="fill:#a2273a;fill-opacity:1;fill-rule:evenodd;stroke:none"
         d="m 212.2923,116.6927 h -6.9886 v -2.4213 h 6.9886 z m 0,-9.4561 v 4.7194 h -6.9886 v -4.7194 h -2.3292 v 10.5699 c 0,0.6718 0.508,1.184 1.156,1.184 h 9.3178 c 0.6652,0 1.1732,-0.5122 1.1732,-1.184 v -10.5699 z" />
      <path
         id="path4261"
         style="fill:#a2273a;fill-opacity:1;fill-rule:evenodd;stroke:none"
         d="m 228.598,115.8443 -0.8405,0.8484 h -6.1477 v -7.1583 h 6.1477 l 0.8405,0.8484 z m 0.2279,-8.6077 h -9.5456 v 11.7539 h 9.5456 l 2.1016,-2.1209 v -7.5118 z" />
      <path
         id="path4263"
         style="fill:#a2273a;fill-opacity:1;fill-rule:evenodd;stroke:none"
         d="m 244.9015,116.6927 h -6.988 v -2.4565 h 6.988 z m -0.6129,-9.4561 -3.4852,4.7019 h -2.8899 v -4.7019 h -2.3295 v 11.7539 h 10.4734 c 0.6656,0 1.1736,-0.5122 1.1736,-1.184 v -4.7016 c 0,-0.6539 -0.508,-1.1664 -1.1736,-1.1664 h -2.3292 l 3.5028,-4.7019 z" />
      <path
         id="path4265"
         style="fill:#a2273a;fill-opacity:1;fill-rule:evenodd;stroke:none"
         d="m 261.2069,116.6927 h -6.9882 v -2.4213 h 6.9882 z m 0,-9.4561 v 4.7194 h -6.9882 v -4.7194 h -2.3295 v 10.5699 c 0,0.6718 0.5079,1.184 1.1557,1.184 h 9.318 c 0.6656,0 1.1735,-0.5122 1.1735,-1.184 v -10.5699 z" />
      <path
         id="path4267"
         style="fill:#a2273a;fill-opacity:1;fill-rule:evenodd;stroke:none"
         d="m 277.5129,116.6927 h -6.9885 v -2.4213 h 6.9885 z m 0,-9.4561 v 4.7194 h -6.9885 v -4.7194 h -2.3295 v 10.5699 c 0,0.6718 0.508,1.184 1.156,1.184 h 9.3177 c 0.6656,0 1.1739,-0.5122 1.1739,-1.184 v -10.5699 z" />
      <path
         id="path4269"
         style="fill:#a2273a;fill-opacity:1;fill-rule:evenodd;stroke:none"
         d="m 293.819,107.2366 v 9.4561 h -2.3293 v -7.1053 h -2.3295 v 7.1053 h -2.3298 v -9.4561 h -2.3292 v 10.5699 c 0,0.6718 0.5077,1.184 1.1557,1.184 h 9.3177 c 0.6659,0 1.1736,-0.5122 1.1736,-1.184 v -10.5699 z" />
      <path
         id="path4271"
         style="fill:#a2273a;fill-opacity:1;fill-rule:evenodd;stroke:none"
         d="m 222.4633,95.4045 h -2.0713 c -0.2877,0 -0.5216,0.2279 -0.5216,0.5185 v 4.1802 c 0,0.2985 0.2339,0.5264 0.5216,0.5264 h 2.0713 c 0.288,0 0.5139,-0.2279 0.5139,-0.5264 v -1.163 l -1.0355,0.1179 v 0.5499 h -1.0355 v -3.1821 h 1.0355 v 1.0927 h -0.5139 v 1.0211 h 1.5494 V 95.923 c 0,-0.2906 -0.2259,-0.5185 -0.5139,-0.5185" />
      <path
         id="path4273"
         style="fill:#a2273a;fill-opacity:1;fill-rule:evenodd;stroke:none"
         d="m 227.2031,95.4045 v 5.2251 h 3.1068 V 99.608 h -2.071 v -1.0763 h 1.557 v -1.0292 h -1.557 v -1.0766 h 2.071 v -1.0214 z" />
      <path
         id="path4275"
         style="fill:#a2273a;fill-opacity:1;fill-rule:evenodd;stroke:none"
         d="m 234.5363,95.4045 v 5.2251 h 1.0352 v -4.2037 h 1.0355 v 1.0686 l 1.0355,0.1259 v -2.2159 z" />
      <path
         id="path4277"
         style="fill:#a2273a;fill-opacity:1;fill-rule:evenodd;stroke:none"
         d="m 243.7296,99.231 -0.3583,0.3614 h -0.6772 v -3.1507 h 0.6772 l 0.3583,0.3614 z m 0.1089,-3.8265 h -2.1801 v 5.2251 h 2.1801 l 0.9266,-0.9428 v -3.3395 z" />
      <path
         id="path4279"
         style="fill:#a2273a;fill-opacity:1;fill-rule:evenodd;stroke:none"
         d="m 248.9913,95.4045 v 5.2251 h 3.1062 V 99.608 h -2.0704 v -1.0763 h 1.5568 v -1.0292 h -1.5568 v -1.0766 h 2.0704 v -1.0214 z" />
      <path
         id="path4281"
         style="fill:#a2273a;fill-opacity:1;fill-rule:evenodd;stroke:none"
         d="m 258.395,99.608 h -1.0358 v -1.0763 h 1.0358 z m 0,-4.2035 v 2.098 h -1.0358 v -2.098 h -1.0355 v 5.2251 h 2.5931 c 0.2877,0 0.5137,-0.2279 0.5137,-0.5264 v -1.5635 c 0,-0.2906 -0.226,-0.5264 -0.5137,-0.5264 0.2877,0 0.5137,-0.2277 0.5137,-0.5188 v -2.09 z" />
      <path
         id="path4283"
         style="fill:#a2273a;fill-opacity:1;fill-rule:evenodd;stroke:none"
         d="m 266.2492,95.4045 h -2.0707 c -0.2883,0 -0.5219,0.2279 -0.5219,0.5185 v 1.171 l 1.0355,-0.1259 v -0.5422 h 1.0358 v 1.0766 h -1.5494 c -0.2883,0 -0.5219,0.2355 -0.5219,0.5264 v 2.0743 c 0,0.2985 0.2336,0.5264 0.5219,0.5264 h 2.0707 c 0.2883,0 0.5136,-0.2279 0.5136,-0.5264 v -1.163 l -1.0349,0.1179 v 0.5499 h -1.0358 v -1.0763 h 1.5571 c 0.2883,0 0.5136,-0.2358 0.5136,-0.5264 V 95.923 c 0,-0.2906 -0.2253,-0.5185 -0.5136,-0.5185" />
      <path
         id="path4285"
         style="fill:#a2273a;fill-opacity:1;fill-rule:evenodd;stroke:none"
         d="m 270.9896,95.4045 v 5.2251 h 3.1062 V 99.608 h -2.0704 v -1.0763 h 1.5567 v -1.0292 h -1.5567 v -1.0766 h 2.0704 v -1.0214 z" />
      <path
         id="path4287"
         style="fill:#a2273a;fill-opacity:1;fill-rule:evenodd;stroke:none"
         d="m 221.9417,87.827 h -1.0355 v -3.1825 h 1.0355 z m 0.5216,-4.2038 h -2.0713 c -0.2877,0 -0.5216,0.2279 -0.5216,0.5184 v 4.18 c 0,0.2988 0.2339,0.5264 0.5216,0.5264 h 2.0713 c 0.288,0 0.5139,-0.2276 0.5139,-0.5264 v -4.18 c 0,-0.2905 -0.2259,-0.5184 -0.5139,-0.5184" />
      <path
         id="path4289"
         style="fill:#a2273a;fill-opacity:1;fill-rule:evenodd;stroke:none"
         d="m 229.2746,83.6232 v 4.2038 h -1.0357 v -4.2038 h -1.0358 v 4.6984 c 0,0.2988 0.2338,0.5264 0.5216,0.5264 h 2.0712 c 0.288,0 0.514,-0.2276 0.514,-0.5264 v -4.6984 z" />
      <path
         id="path4291"
         style="fill:#a2273a;fill-opacity:1;fill-rule:evenodd;stroke:none"
         d="m 236.607,87.4497 -0.358,0.3614 h -0.6775 v -3.1507 h 0.6775 l 0.358,0.3617 z m 0.1092,-3.8265 h -2.1799 v 5.2248 h 2.1799 l 0.9263,-0.9425 V 84.566 Z" />
      <path
         id="path4293"
         style="fill:#a2273a;fill-opacity:1;fill-rule:evenodd;stroke:none"
         d="m 241.8684,83.6232 v 5.2248 h 3.1071 v -1.021 h -2.0713 v -1.0766 h 1.5573 v -1.0293 h -1.5573 v -1.0766 h 2.0713 v -1.0213 z" />
      <path
         id="path4295"
         style="fill:#a2273a;fill-opacity:1;fill-rule:evenodd;stroke:none"
         d="m 251.2726,87.827 h -1.0355 v -1.0766 h 1.0355 z m 0,-4.2038 v 2.0979 h -1.0355 v -2.0979 h -1.0357 v 5.2248 h 2.5925 c 0.2886,0 0.5139,-0.2276 0.5139,-0.5264 V 86.758 c 0,-0.2903 -0.2253,-0.5264 -0.5139,-0.5264 0.2886,0 0.5139,-0.2276 0.5139,-0.5184 v -2.09 z" />
      <path
         id="path4297"
         style="fill:#a2273a;fill-opacity:1;fill-rule:evenodd;stroke:none"
         d="m 260.1626,83.6232 h -3.107 c -0.288,0 -0.5219,0.2279 -0.5219,0.5184 v 4.7064 h 1.0358 v -4.2035 h 0.5219 v 3.1586 h 1.0355 v -3.1586 h 0.5139 v 4.2035 h 1.0355 v -4.7064 c 0,-0.2905 -0.2259,-0.5184 -0.5137,-0.5184" />
      <path
         id="path4299"
         style="fill:#a2273a;fill-opacity:1;fill-rule:evenodd;stroke:none"
         d="m 264.9016,83.6232 v 5.2248 h 1.0358 v -5.2248 z" />
      <path
         id="path4301"
         style="fill:#a2273a;fill-opacity:1;fill-rule:evenodd;stroke:none"
         d="m 272.6014,83.6232 h -2.0713 c -0.2875,0 -0.5139,0.2279 -0.5139,0.5184 v 1.6971 l 1.0357,-0.1255 v -1.0687 h 1.0355 v 3.1825 h -1.0355 v 1.021 h 2.0713 v -4.7064 c 0,-0.2905 -0.2341,-0.5184 -0.5218,-0.5184" />
      <path
         id="path4303"
         style="fill:#a2273a;fill-opacity:1;fill-rule:evenodd;stroke:none"
         d="m 279.9343,83.6232 h -2.0713 c -0.2883,0 -0.5218,0.2279 -0.5218,0.5184 v 1.171 l 1.0355,-0.1258 v -0.5423 h 1.0357 v 1.0766 h -1.5494 c -0.2883,0 -0.5218,0.2358 -0.5218,0.5264 v 2.0741 c 0,0.2988 0.2335,0.5264 0.5218,0.5264 h 2.0713 c 0.2877,0 0.5136,-0.2276 0.5136,-0.5264 v -1.1628 l -1.0355,0.118 v 0.5502 h -1.0357 v -1.0766 h 1.5576 c 0.2877,0 0.5136,-0.2359 0.5136,-0.5264 v -2.0824 c 0,-0.2905 -0.2259,-0.5184 -0.5136,-0.5184" />
      <path
         id="path4305"
         style="fill:#a2273a;fill-opacity:1;fill-rule:evenodd;stroke:none"
         d="m 222.4633,71.8367 h -2.0713 c -0.2877,0 -0.5216,0.2279 -0.5216,0.5185 v 4.1802 c 0,0.2985 0.2339,0.5264 0.5216,0.5264 h 2.0713 c 0.288,0 0.5139,-0.2279 0.5139,-0.5264 v -1.163 l -1.0355,0.1179 v 0.5499 h -1.0355 V 72.858 h 1.0355 v 1.0925 h -0.5139 v 1.0213 h 1.5494 v -2.6166 c 0,-0.2906 -0.2259,-0.5185 -0.5139,-0.5185" />
      <path
         id="path4307"
         style="fill:#a2273a;fill-opacity:1;fill-rule:evenodd;stroke:none"
         d="m 229.2746,76.0402 h -1.0357 v -1.0763 h 1.0357 z m 0,-4.2035 v 2.0979 h -1.0357 v -2.0979 h -1.0358 v 5.2251 h 2.5928 c 0.288,0 0.514,-0.2279 0.514,-0.5264 v -1.5636 c 0,-0.2905 -0.226,-0.5264 -0.514,-0.5264 0.288,0 0.514,-0.2276 0.514,-0.5187 v -2.09 z" />
      <path
         id="path4309"
         style="fill:#a2273a;fill-opacity:1;fill-rule:evenodd;stroke:none"
         d="m 236.607,76.0402 h -1.0355 V 72.858 h 1.0355 z m 0.5216,-4.2035 h -2.071 c -0.288,0 -0.5213,0.2279 -0.5213,0.5185 v 4.1802 c 0,0.2985 0.2333,0.5264 0.5213,0.5264 h 2.071 c 0.2883,0 0.5139,-0.2279 0.5139,-0.5264 v -4.1802 c 0,-0.2906 -0.2256,-0.5185 -0.5139,-0.5185" />
      <path
         id="path4311"
         style="fill:#a2273a;fill-opacity:1;fill-rule:evenodd;stroke:none"
         d="m 241.8684,71.8367 v 5.2251 h 3.1071 v -1.0216 h -2.0713 v -1.0763 h 1.5573 v -1.0293 h -1.5573 V 72.858 h 2.0713 v -1.0213 z" />
      <path
         id="path4313"
         style="fill:#a2273a;fill-opacity:1;fill-rule:evenodd;stroke:none"
         d="m 251.2726,76.0402 h -1.0355 v -1.0919 h 1.0355 z m 0.5213,-2.1135 h -1.5568 v -2.09 h -1.0357 v 5.2251 h 2.5925 c 0.2886,0 0.5139,-0.2279 0.5139,-0.5264 v -2.09 c 0,-0.2908 -0.2253,-0.5187 -0.5139,-0.5187" />
      <path
         id="path4315"
         style="fill:#f08319;fill-opacity:1;fill-rule:evenodd;stroke:none"
         d="m 189.5102,145.542 h 22.8419 v 3.8668 c -7.471,1.7526 -15.1124,2.8071 -22.8419,3.1034 z" />
      <path
         id="path4317"
         style="fill:#f08319;fill-opacity:1;fill-rule:evenodd;stroke:none"
         d="m 212.3521,168.5934 h -22.8419 v -12.1751 c 7.7287,-0.2869 15.3686,-1.3085 22.8419,-3.0056 z" />
      <path
         id="path4319"
         style="fill:#f08319;fill-opacity:1;fill-rule:evenodd;stroke:none"
         d="m 206.1641,131.2061 h 9.1372 v 9.2205 h -9.1372 z" />
      <path
         id="path4321"
         style="fill:#f08319;fill-opacity:1;fill-rule:evenodd;stroke:none"
         d="m 219.3571,147.547 v -19.4213 h 29.2382 v 9.4224 c -5.4496,2.3482 -12.0146,3.6819 -17.922,6.0412 -3.7112,1.4984 -7.4872,2.8193 -11.3162,3.9577" />
      <path
         id="path4323"
         style="fill:#f08319;fill-opacity:1;fill-rule:evenodd;stroke:none"
         d="m 248.5953,141.7547 v 15.8771 h -29.2382 v -6.0194 c 4.3222,-1.2432 8.5785,-2.7136 12.7528,-4.399 4.9705,-2.0311 10.9227,-3.2707 16.4854,-5.4587" />
    </g>
  </g>
</svg>
