<?xml version="1.0" encoding="UTF-8" standalone="no"?>
<svg
   xmlns:dc="http://purl.org/dc/elements/1.1/"
   xmlns:cc="http://creativecommons.org/ns#"
   xmlns:rdf="http://www.w3.org/1999/02/22-rdf-syntax-ns#"
   xmlns:svg="http://www.w3.org/2000/svg"
   xmlns="http://www.w3.org/2000/svg"
   id="svg1485"
   version="1.1"
   viewBox="0 0 53.154507 12.85681"
   height="12.85681mm"
   width="53.154507mm">
  <defs
     id="defs1479" />
  <metadata
     id="metadata1482">
    <rdf:RDF>
      <cc:Work
         rdf:about="">
        <dc:format>image/svg+xml</dc:format>
        <dc:type
           rdf:resource="http://purl.org/dc/dcmitype/StillImage" />
        <dc:title></dc:title>
      </cc:Work>
    </rdf:RDF>
  </metadata>
  <g
     transform="translate(-86.059652,-68.32159)"
     id="layer1">
    <g
       id="g3751"
       transform="matrix(0.35277777,0,0,-0.35277777,-38.904147,439.57278)">
      <path
         id="path3753"
         style="fill:#333333;fill-opacity:1;fill-rule:nonzero;stroke:none"
         d="m 399.4092,1034.015 h 0.0457 c 0.2134,0.4572 0.5904,0.8725 1.1313,1.2455 0.5408,0.3733 1.2381,0.5601 2.0914,0.5601 0.7313,0 1.3521,-0.1219 1.8626,-0.3656 0.5105,-0.2438 0.9255,-0.5639 1.2456,-0.9601 0.32,-0.396 0.5485,-0.8533 0.6857,-1.3712 0.1372,-0.5181 0.2058,-1.059 0.2058,-1.6228 v -6.9253 h -2.7428 v 5.5539 c 0,0.3047 -0.0151,0.6438 -0.0457,1.0171 -0.0303,0.3733 -0.1105,0.724 -0.2401,1.0514 -0.1292,0.3276 -0.3313,0.6017 -0.6055,0.8229 -0.2743,0.2208 -0.6477,0.3313 -1.1199,0.3313 -0.4573,0 -0.8419,-0.076 -1.1543,-0.2285 -0.3124,-0.1525 -0.5712,-0.3583 -0.777,-0.6171 -0.2058,-0.259 -0.3543,-0.5561 -0.4456,-0.8915 -0.0915,-0.335 -0.1372,-0.6857 -0.1372,-1.0513 v -5.9882 h -2.7428 v 17.2789 h 2.7428 z m 9.9615,1.5312 h 2.7426 v -10.9706 h -2.7426 z m -0.3886,3.7256 c 0,0.4419 0.1639,0.8266 0.4915,1.1543 0.3274,0.3274 0.7427,0.4912 1.2456,0.4912 0.5028,0 0.9255,-0.1562 1.2685,-0.4685 0.3427,-0.3124 0.5142,-0.7047 0.5142,-1.177 0,-0.4722 -0.1715,-0.8648 -0.5142,-1.1772 -0.343,-0.3121 -0.7657,-0.4683 -1.2685,-0.4683 -0.5029,0 -0.9182,0.1636 -1.2456,0.4912 -0.3276,0.3277 -0.4915,0.7124 -0.4915,1.1543 z m 17.1522,-3.7256 v -9.9878 c 0,-0.9902 -0.1219,-1.8854 -0.3657,-2.6853 -0.2438,-0.7999 -0.6211,-1.478 -1.1316,-2.0341 -0.5102,-0.5562 -1.154,-0.9868 -1.9312,-1.2915 -0.777,-0.3047 -1.6988,-0.4572 -2.7655,-0.4572 -1.0208,0 -1.9885,0.1295 -2.9027,0.3886 -0.9142,0.2591 -1.7597,0.7313 -2.537,1.417 l 1.6458,2.24 c 0.5485,-0.5029 1.12,-0.8915 1.7141,-1.1656 0.5941,-0.2744 1.2798,-0.4116 2.0571,-0.4116 0.6551,0 1.2073,0.091 1.6569,0.2744 0.4495,0.1828 0.8075,0.4342 1.0743,0.7543 0.2664,0.32 0.4569,0.7047 0.5715,1.154 0.1142,0.4495 0.1712,0.9487 0.1712,1.4972 v 0.8 h -0.0457 c -0.3963,-0.5335 -0.9218,-0.9335 -1.5769,-1.2 -0.6554,-0.2667 -1.3258,-0.3999 -2.0115,-0.3999 -0.8226,0 -1.5692,0.1485 -2.2396,0.4456 -0.6707,0.2971 -1.2458,0.697 -1.7257,1.1999 -0.4799,0.5029 -0.8496,1.097 -1.1084,1.7827 -0.2591,0.6857 -0.3886,1.417 -0.3886,2.194 0,0.8076 0.1219,1.5619 0.3657,2.2629 0.2437,0.7007 0.6018,1.3102 1.074,1.8284 0.4725,0.5178 1.04,0.9255 1.7028,1.2228 0.663,0.2971 1.421,0.4456 2.2742,0.4456 0.777,0 1.501,-0.1525 2.1713,-0.4572 0.6704,-0.3047 1.2036,-0.7923 1.5999,-1.4627 h 0.0457 v 1.6455 z m -5.851,-2.194 c -0.4876,0 -0.9295,-0.08 -1.3258,-0.2401 -0.396,-0.1598 -0.735,-0.3807 -1.0171,-0.6627 -0.2817,-0.2818 -0.5028,-0.6248 -0.6627,-1.0284 -0.1599,-0.404 -0.2401,-0.8496 -0.2401,-1.3371 0,-0.4419 0.0802,-0.8533 0.2401,-1.2342 0.1599,-0.381 0.3847,-0.7161 0.6741,-1.0058 0.2897,-0.2894 0.6324,-0.5179 1.0287,-0.6854 0.396,-0.1678 0.8226,-0.2514 1.2798,-0.2514 0.5029,0 0.9561,0.084 1.3598,0.2514 0.4039,0.1675 0.7466,0.3923 1.0287,0.6741 0.2818,0.282 0.4989,0.6208 0.6514,1.0171 0.1522,0.3963 0.2285,0.8229 0.2285,1.2798 0,0.9601 -0.2895,1.7371 -0.8686,2.3312 -0.5791,0.5944 -1.3714,0.8915 -2.3768,0.8915 z m 11.499,0.6628 h 0.0456 c 0.2132,0.4572 0.5905,0.8725 1.1313,1.2455 0.5409,0.3733 1.2382,0.5601 2.0914,0.5601 0.7314,0 1.3522,-0.1219 1.8627,-0.3656 0.5105,-0.2438 0.9255,-0.5639 1.2455,-0.9601 0.3201,-0.396 0.5485,-0.8533 0.6857,-1.3712 0.1372,-0.5181 0.2058,-1.059 0.2058,-1.6228 v -6.9253 h -2.7428 v 5.5539 c 0,0.3047 -0.0153,0.6438 -0.0456,1.0171 -0.0306,0.3733 -0.1106,0.724 -0.2401,1.0514 -0.1295,0.3276 -0.3314,0.6017 -0.6055,0.8229 -0.2744,0.2208 -0.6477,0.3313 -1.12,0.3313 -0.4572,0 -0.8418,-0.076 -1.1542,-0.2285 -0.3124,-0.1525 -0.5715,-0.3583 -0.777,-0.6171 -0.2058,-0.259 -0.3543,-0.5561 -0.4459,-0.8915 -0.0913,-0.335 -0.1369,-0.6857 -0.1369,-1.0513 v -5.9882 h -2.7428 v 17.2789 h 2.7428 z m 16.0243,-1.5084 c -0.5332,0.7467 -1.2493,1.1197 -2.1484,1.1197 -0.3657,0 -0.7237,-0.091 -1.0741,-0.2741 -0.3506,-0.1828 -0.5258,-0.4799 -0.5258,-0.8915 0,-0.335 0.1448,-0.5788 0.4343,-0.7313 0.2894,-0.1522 0.6551,-0.2818 1.097,-0.3884 0.4419,-0.1068 0.9181,-0.2171 1.4286,-0.3313 0.5103,-0.1146 0.9865,-0.2897 1.4284,-0.5259 0.4419,-0.2361 0.8076,-0.5598 1.097,-0.9714 0.2894,-0.4113 0.4343,-0.9751 0.4343,-1.6911 0,-0.6554 -0.1409,-1.2076 -0.4229,-1.6572 -0.2818,-0.4495 -0.6475,-0.8112 -1.097,-1.0856 -0.4496,-0.2742 -0.9562,-0.4723 -1.52,-0.5942 -0.5635,-0.1219 -1.1273,-0.1828 -1.6911,-0.1828 -0.8533,0 -1.6382,0.1219 -2.3542,0.3656 -0.716,0.2438 -1.3561,0.6858 -1.9199,1.3255 l 1.8283,1.7144 c 0.3507,-0.3963 0.7277,-0.72 1.1316,-0.9714 0.4037,-0.2514 0.8952,-0.377 1.474,-0.377 0.1982,0 0.404,0.023 0.6171,0.068 0.2135,0.046 0.4116,0.1219 0.5945,0.2288 0.1828,0.1065 0.3313,0.2398 0.4456,0.3999 0.1142,0.1599 0.1715,0.3467 0.1715,0.5599 0,0.3809 -0.1449,0.6627 -0.4343,0.8455 -0.2897,0.1829 -0.6554,0.3314 -1.0973,0.4459 -0.4416,0.1143 -0.9178,0.2208 -1.4284,0.3198 -0.5105,0.099 -0.9864,0.2591 -1.4283,0.4802 -0.442,0.2208 -0.8076,0.5295 -1.0971,0.9255 -0.2897,0.3963 -0.4342,0.9448 -0.4342,1.6455 0,0.6094 0.1256,1.1392 0.377,1.5885 0.2514,0.4496 0.5828,0.819 0.9941,1.1087 0.4116,0.2894 0.8838,0.5025 1.417,0.6397 0.5335,0.1372 1.0744,0.2058 1.6229,0.2058 0.7313,0 1.455,-0.1258 2.1713,-0.377 0.716,-0.2514 1.2952,-0.682 1.7371,-1.2914 l -1.8286,-1.6456 z m 11.5905,-0.2514 c -0.32,0.3351 -0.6553,0.6018 -1.0057,0.7999 -0.3504,0.1982 -0.7084,0.2971 -1.074,0.2971 -0.5029,0 -0.9525,-0.091 -1.3488,-0.2744 -0.396,-0.1828 -0.735,-0.4266 -1.017,-0.7313 -0.2818,-0.3047 -0.4953,-0.6551 -0.6398,-1.0514 -0.1449,-0.396 -0.2172,-0.8076 -0.2172,-1.2342 0,-0.4266 0.0723,-0.8379 0.2172,-1.2342 0.1445,-0.396 0.358,-0.7466 0.6398,-1.0514 0.282,-0.3047 0.621,-0.5485 1.017,-0.7313 0.3963,-0.1828 0.8459,-0.2741 1.3488,-0.2741 0.4266,0 0.8226,0.088 1.1882,0.2628 0.3657,0.1751 0.6781,0.4305 0.9372,0.7656 l 1.8283,-1.9655 c -0.2741,-0.2744 -0.5904,-0.5106 -0.9485,-0.7084 -0.358,-0.1982 -0.72,-0.3583 -1.0856,-0.4802 -0.3657,-0.1219 -0.7161,-0.2095 -1.0514,-0.2628 -0.335,-0.053 -0.6245,-0.08 -0.8682,-0.08 -0.8229,0 -1.6002,0.1372 -2.3315,0.4113 -0.7314,0.2744 -1.3638,0.6627 -1.897,1.1656 -0.5332,0.5029 -0.9561,1.1086 -1.2685,1.817 -0.3124,0.7087 -0.4686,1.497 -0.4686,2.3655 0,0.8685 0.1562,1.6571 0.4686,2.3658 0.3124,0.7084 0.7353,1.3142 1.2685,1.8167 0.5332,0.5029 1.1656,0.8915 1.897,1.1659 0.7313,0.2741 1.5086,0.4113 2.3315,0.4113 0.7007,0 1.4054,-0.1335 2.114,-0.3999 0.7084,-0.2668 1.3295,-0.6894 1.8627,-1.2685 l -1.897,-1.897 z m 6.0594,1.7598 h 0.0456 c 0.2135,0.4572 0.5905,0.8725 1.1316,1.2455 0.5409,0.3733 1.2379,0.5601 2.0911,0.5601 0.7314,0 1.3524,-0.1219 1.8627,-0.3656 0.5105,-0.2438 0.9258,-0.5639 1.2458,-0.9601 0.3197,-0.396 0.5485,-0.8533 0.6857,-1.3712 0.1369,-0.5181 0.2055,-1.059 0.2055,-1.6228 v -6.9253 h -2.7425 v 5.5539 c 0,0.3047 -0.0153,0.6438 -0.0459,1.0171 -0.0304,0.3733 -0.1103,0.724 -0.2398,1.0514 -0.1296,0.3276 -0.3314,0.6017 -0.6058,0.8229 -0.2741,0.2208 -0.6474,0.3313 -1.12,0.3313 -0.4569,0 -0.8416,-0.076 -1.154,-0.2285 -0.3123,-0.1525 -0.5714,-0.3583 -0.7772,-0.6171 -0.2055,-0.259 -0.3544,-0.5561 -0.4456,-0.8915 -0.0913,-0.335 -0.1372,-0.6857 -0.1372,-1.0513 v -5.9882 h -2.7425 v 17.2789 h 2.7425 z m 9.0728,-3.9541 c 0,0.8685 0.1562,1.6571 0.4686,2.3658 0.3124,0.7084 0.735,1.3142 1.2685,1.8167 0.5332,0.5029 1.1656,0.8915 1.8969,1.1659 0.7314,0.2741 1.5084,0.4113 2.3313,0.4113 0.8228,0 1.5998,-0.1372 2.3312,-0.4113 0.7313,-0.2744 1.3637,-0.663 1.8972,-1.1659 0.5332,-0.5025 0.9561,-1.1083 1.2682,-1.8167 0.3124,-0.7087 0.4686,-1.4973 0.4686,-2.3658 0,-0.8685 -0.1562,-1.6568 -0.4686,-2.3655 -0.3121,-0.7084 -0.735,-1.3141 -1.2682,-1.817 -0.5335,-0.5026 -1.1659,-0.8912 -1.8972,-1.1656 -0.7314,-0.2741 -1.5084,-0.4113 -2.3312,-0.4113 -0.8229,0 -1.5999,0.1372 -2.3313,0.4113 -0.7313,0.2744 -1.3637,0.663 -1.8969,1.1656 -0.5335,0.5029 -0.9561,1.1086 -1.2685,1.817 -0.3124,0.7087 -0.4686,1.497 -0.4686,2.3655 z m 2.7425,0 c 0,-0.4266 0.0726,-0.8379 0.2172,-1.2342 0.1448,-0.396 0.3583,-0.7466 0.64,-1.0514 0.2818,-0.3044 0.6211,-0.5485 1.0171,-0.7313 0.396,-0.1828 0.8456,-0.2741 1.3485,-0.2741 0.5028,0 0.9524,0.091 1.3484,0.2741 0.3963,0.1828 0.7353,0.4266 1.0171,0.7313 0.282,0.3048 0.4952,0.6554 0.64,1.0514 0.1446,0.3963 0.2172,0.8076 0.2172,1.2342 0,0.4266 -0.0726,0.8382 -0.2172,1.2342 -0.1448,0.3963 -0.3583,0.7467 -0.64,1.0514 -0.2818,0.3047 -0.6208,0.5485 -1.0171,0.7313 -0.396,0.1829 -0.8456,0.2744 -1.3484,0.2744 -0.5029,0 -0.9522,-0.091 -1.3485,-0.2744 -0.3963,-0.1828 -0.7353,-0.4266 -1.0171,-0.7313 -0.2817,-0.3047 -0.4952,-0.6551 -0.64,-1.0514 -0.1446,-0.396 -0.2172,-0.8076 -0.2172,-1.2342 z m 10.9965,0 c 0,0.8685 0.1562,1.6571 0.4683,2.3658 0.3123,0.7084 0.7353,1.3142 1.2685,1.8167 0.5335,0.5029 1.1659,0.8915 1.8972,1.1659 0.7313,0.2741 1.5083,0.4113 2.3312,0.4113 0.8226,0 1.5999,-0.1372 2.3312,-0.4113 0.7314,-0.2744 1.3638,-0.663 1.897,-1.1659 0.5332,-0.5025 0.9561,-1.1083 1.2685,-1.8167 0.3124,-0.7087 0.4685,-1.4973 0.4685,-2.3658 0,-0.8685 -0.1561,-1.6568 -0.4685,-2.3655 -0.3124,-0.7084 -0.7353,-1.3141 -1.2685,-1.817 -0.5332,-0.5026 -1.1656,-0.8912 -1.897,-1.1656 -0.7313,-0.2741 -1.5086,-0.4113 -2.3312,-0.4113 -0.8229,0 -1.5999,0.1372 -2.3312,0.4113 -0.7313,0.2744 -1.3637,0.663 -1.8972,1.1656 -0.5332,0.5029 -0.9562,1.1086 -1.2685,1.817 -0.3121,0.7087 -0.4683,1.497 -0.4683,2.3655 z m 2.7425,0 c 0,-0.4266 0.0726,-0.8379 0.2171,-1.2342 0.1449,-0.396 0.3581,-0.7466 0.6401,-1.0514 0.2818,-0.3044 0.6208,-0.5485 1.0171,-0.7313 0.396,-0.1828 0.8455,-0.2741 1.3484,-0.2741 0.5029,0 0.9522,0.091 1.3485,0.2741 0.396,0.1828 0.7353,0.4266 1.017,0.7313 0.2818,0.3048 0.4952,0.6554 0.6401,1.0514 0.1446,0.3963 0.2168,0.8076 0.2168,1.2342 0,0.4266 -0.0722,0.8382 -0.2168,1.2342 -0.1449,0.3963 -0.3583,0.7467 -0.6401,1.0514 -0.2817,0.3047 -0.621,0.5485 -1.017,0.7313 -0.3963,0.1829 -0.8456,0.2744 -1.3485,0.2744 -0.5029,0 -0.9524,-0.091 -1.3484,-0.2744 -0.3963,-0.1828 -0.7353,-0.4266 -1.0171,-0.7313 -0.282,-0.3047 -0.4952,-0.6551 -0.6401,-1.0514 -0.1448,-0.396 -0.2171,-0.8076 -0.2171,-1.2342 z m 11.1489,11.7936 h 2.7426 v -17.2789 h -2.7426 z" />
      <path
         id="path3755"
         style="fill:#333333;fill-opacity:1;fill-rule:evenodd;stroke:none"
         d="m 371.5571,1052.3653 c 9.5704,0 17.3291,-7.7587 17.3291,-17.3287 0,-3.8251 -1.2402,-7.3599 -3.339,-10.226 -0.3789,-0.5783 -1.2758,-1.2252 -2.4335,-1.6022 l 6.8335,-7.2873 h -8.9731 c -0.6984,0.6452 -1.9621,1.9188 -3.0144,3.0082 -1.9805,-0.7884 -4.1408,-1.2221 -6.4026,-1.2221 -9.5703,0 -17.329,7.7588 -17.329,17.3294 0,4.7418 1.9057,9.0385 4.9921,12.1674 3.3857,1.0349 8.0269,0.8385 11.0727,-0.995 -0.4093,-0.049 -0.8121,-0.1187 -1.2067,-0.21 -5.0171,-1.1262 -8.7656,-5.6061 -8.7656,-10.9624 0,-2.1252 0.5902,-4.1125 1.6152,-5.8071 2.9029,-4.7988 9.3348,-8.3656 14.5462,-8.7486 -1.4153,1.5594 -3.0645,2.5983 -4.6873,3.2953 l -0.006,0.027 c 0.6979,0.014 1.3796,0.093 2.041,0.2284 5.1536,1.0214 9.0394,5.5676 9.0394,11.0211 0,10.1435 -12.4526,16.1249 -21.3772,14.0913 2.8372,2.028 6.3116,3.2216 10.0649,3.2216" />
    </g>
  </g>
</svg>
