<?xml version="1.0" encoding="UTF-8" standalone="no"?>
<!-- Created with Inkscape (http://www.inkscape.org/) -->

<svg
   xmlns:dc="http://purl.org/dc/elements/1.1/"
   xmlns:cc="http://creativecommons.org/ns#"
   xmlns:rdf="http://www.w3.org/1999/02/22-rdf-syntax-ns#"
   xmlns:svg="http://www.w3.org/2000/svg"
   xmlns="http://www.w3.org/2000/svg"
   xmlns:sodipodi="http://sodipodi.sourceforge.net/DTD/sodipodi-0.dtd"
   xmlns:inkscape="http://www.inkscape.org/namespaces/inkscape"
   width="12.6009mm"
   height="12.85732mm"
   viewBox="0 0 12.6009 12.85732"
   version="1.1"
   id="svg2055"
   inkscape:version="0.92.3 (2405546, 2018-03-11)">
  <defs
     id="defs2049" />
  <sodipodi:namedview
     id="base"
     pagecolor="#ffffff"
     bordercolor="#666666"
     borderopacity="1.0"
     inkscape:pageopacity="0.0"
     inkscape:pageshadow="2"
     inkscape:zoom="0.35"
     inkscape:cx="-606.18727"
     inkscape:cy="221.43918"
     inkscape:document-units="mm"
     inkscape:current-layer="layer1"
     showgrid="false"
     fit-margin-top="0"
     fit-margin-left="0"
     fit-margin-right="0"
     fit-margin-bottom="0"
     inkscape:window-width="1920"
     inkscape:window-height="1137"
     inkscape:window-x="-8"
     inkscape:window-y="476"
     inkscape:window-maximized="1" />
  <metadata
     id="metadata2052">
    <rdf:RDF>
      <cc:Work
         rdf:about="">
        <dc:format>image/svg+xml</dc:format>
        <dc:type
           rdf:resource="http://purl.org/dc/dcmitype/StillImage" />
        <dc:title></dc:title>
      </cc:Work>
    </rdf:RDF>
  </metadata>
  <g
     inkscape:label="Laag 1"
     inkscape:groupmode="layer"
     id="layer1"
     transform="translate(-143.37812,-194.56513)">
    <path
       d="m 149.49141,194.56575 c 3.37622,0 6.11332,2.7371 6.11332,6.11318 0,1.34941 -0.43752,2.59641 -1.17793,3.6075 -0.13367,0.20402 -0.45007,0.43223 -0.85848,0.56523 l 2.4107,2.57079 h -3.16551 c -0.24638,-0.22761 -0.69218,-0.67691 -1.06341,-1.06122 -0.69868,0.27813 -1.46078,0.43113 -2.25869,0.43113 -3.37619,0 -6.11329,-2.73714 -6.11329,-6.11343 0,-1.6728 0.67229,-3.18858 1.7611,-4.29239 1.1944,-0.36509 2.83171,-0.2958 3.9062,0.35101 -0.14439,0.0173 -0.28649,0.0419 -0.42569,0.0741 -1.76992,0.3973 -3.09231,1.97771 -3.09231,3.86729 0,0.74972 0.20821,1.4508 0.5698,2.04862 1.02408,1.6929 3.29311,2.95119 5.13158,3.08631 -0.49929,-0.55012 -1.08109,-0.91663 -1.65357,-1.16251 l -0.002,-0.01 c 0.2462,-0.005 0.48669,-0.0328 0.72001,-0.0806 1.81808,-0.36035 3.18891,-1.96415 3.18891,-3.88802 0,-3.5784 -4.393,-5.68851 -7.5414,-4.9711 1.0009,-0.71543 2.22659,-1.13651 3.55067,-1.13651"
       style="fill:#333333;fill-opacity:1;fill-rule:evenodd;stroke:none;stroke-width:0.35277775"
       id="path3755"
       inkscape:connector-curvature="0" />
  </g>
</svg>
