<?xml version="1.0" encoding="UTF-8"?>
<!DOCTYPE svg PUBLIC "-//W3C//DTD SVG 1.1//EN" "http://www.w3.org/Graphics/SVG/1.1/DTD/svg11.dtd">
<!-- Creator: CorelDRAW X7 -->
<svg xmlns="http://www.w3.org/2000/svg" xml:space="preserve" width="105.833mm" height="28.2222mm" version="1.1" style="shape-rendering:geometricPrecision; text-rendering:geometricPrecision; image-rendering:optimizeQuality; fill-rule:evenodd; clip-rule:evenodd"
viewBox="0 0 10583 2822"
 xmlns:xlink="http://www.w3.org/1999/xlink">
 <defs>
  <style type="text/css">
   <![CDATA[
    .fil1 {fill:#FFFFFF}
    .fil0 {fill:#AB2330}
    .fil2 {fill:#FFFFFF;fill-rule:nonzero}
   ]]>
  </style>
 </defs>
 <g id="Laag_x0020_1">
  <metadata id="CorelCorpID_0Corel-Layer"/>
  <g id="_2896585446880">
   <g>
    <path class="fil0" d="M6669 2373l-70 0 0 -105 -69 0 0 105 -70 0 0 -212 209 0 0 212zm-139 103l69 0 0 -35 104 0c20,0 35,-15 35,-34l0 -279c0,-19 -15,-35 -35,-35l-278 0c-19,0 -34,16 -34,35l0 279c0,19 15,34 34,34l105 0 0 35z"/>
    <path class="fil0" d="M7156 2373l-209 0 0 -280 -70 0 0 314c0,19 16,34 35,34l278 0c20,0 35,-15 35,-34l0 -314 -69 0 0 280z"/>
    <path class="fil0" d="M7642 2233l-208 0 0 -72 208 0 0 72zm35 -140l-278 0c-20,0 -35,16 -35,35l0 313 70 0 0 -139 208 0 0 139 70 0 0 -313c0,-19 -15,-35 -35,-35z"/>
    <path class="fil0" d="M8129 2348l-25 25 -184 0 0 -212 184 0 25 26 0 161zm-278 -255l0 348 285 0 63 -63 0 -222 -63 -63 -285 0z"/>
    <path class="fil0" d="M8616 2234l-209 0 0 -73 209 0 0 73zm34 -141l-312 0 0 348 69 0 0 -139 86 0 104 139 88 0 -104 -139 69 0c20,0 35,-15 35,-34l0 -140c0,-19 -15,-35 -35,-35z"/>
    <path class="fil0" d="M9102 2233l-208 0 0 -72 208 0 0 72zm35 -140l-278 0c-20,0 -35,16 -35,35l0 313 70 0 0 -139 208 0 0 139 70 0 0 -313c0,-19 -15,-35 -35,-35z"/>
    <path class="fil0" d="M9589 2233l-208 0 0 -72 208 0 0 72zm35 -140l-278 0c-20,0 -35,16 -35,35l0 313 70 0 0 -139 208 0 0 139 70 0 0 -313c0,-19 -15,-35 -35,-35z"/>
    <path class="fil0" d="M10110 2093l-278 0c-19,0 -34,16 -34,35l0 313 69 0 0 -280 70 0 0 211 69 0 0 -211 70 0 0 280 69 0 0 -313c0,-19 -15,-35 -35,-35z"/>
   </g>
   <path class="fil1" d="M8684 1374l565 0 0 -94c-185,-43 -374,-69 -565,-76l0 170z"/>
   <path class="fil1" d="M9249 809l-565 0 0 299c191,7 380,32 565,74l0 -373z"/>
   <polygon class="fil1" points="9096,1726 9322,1726 9322,1500 9096,1500 "/>
   <path class="fil1" d="M9422 1325l0 476 723 0 0 -231c-134,-57 -297,-90 -443,-148 -92,-36 -185,-69 -280,-97z"/>
   <path class="fil1" d="M10145 1467l0 -389 -723 0 0 148c107,30 212,66 316,107 123,50 270,81 407,134z"/>
   <path class="fil1" d="M1623 1538l-319 0 0 -438 -263 0 0 438 -340 0 0 -935 922 0 0 935zm275 -1059c0,-70 -69,-132 -145,-132l-1185 0c-73,0 -130,58 -130,132l0 1184c0,73 57,130 130,130l473 0 0 143 263 0 0 -143 449 0c75,0 133,-57 133,-130l12 -1184z"/>
   <path class="fil2" d="M2311 1248l3 0c12,-27 34,-51 65,-72 32,-22 72,-33 121,-33 43,0 78,7 108,21 29,15 53,33 72,56 18,23 32,49 40,79 8,30 12,61 12,94l0 400 -159 0 0 -321c0,-17 -1,-37 -3,-59 -1,-21 -6,-41 -14,-60 -7,-19 -19,-35 -35,-48 -15,-13 -37,-19 -64,-19 -27,0 -49,4 -67,13 -18,9 -33,21 -45,36 -12,15 -20,32 -26,51 -5,20 -8,40 -8,61l0 346 -158 0 0 -999 158 0 0 454zm576 -89l159 0 0 634 -159 0 0 -634zm-22 -215c0,-26 9,-48 28,-67 19,-19 43,-28 72,-28 29,0 54,9 74,27 19,18 29,40 29,68 0,27 -10,50 -29,68 -20,18 -45,27 -74,27 -29,0 -53,-10 -72,-29 -19,-18 -28,-41 -28,-66zm991 215l0 578c0,57 -7,109 -21,155 -14,46 -36,85 -65,117 -30,33 -67,57 -112,75 -45,18 -98,27 -160,27 -59,0 -115,-8 -168,-23 -52,-15 -101,-42 -146,-82l95 -129c32,29 65,51 99,67 34,16 74,24 119,24 38,0 70,-5 96,-16 26,-11 46,-25 62,-44 15,-18 26,-40 33,-66 7,-26 10,-55 10,-87l0 -46 -3 0c-23,31 -53,54 -91,69 -38,16 -77,23 -116,23 -48,0 -91,-8 -130,-25 -39,-18 -72,-41 -100,-70 -27,-29 -49,-63 -64,-103 -15,-40 -22,-82 -22,-127 0,-46 7,-90 21,-131 14,-40 35,-75 62,-105 27,-30 60,-54 99,-71 38,-17 82,-26 131,-26 45,0 87,9 126,27 38,17 69,46 92,84l3 0 0 -95 150 0zm-338 127c-28,0 -54,5 -77,14 -22,9 -42,22 -58,38 -17,16 -29,36 -39,60 -9,23 -14,49 -14,77 0,25 5,49 14,71 10,22 23,42 39,58 17,17 37,30 60,40 23,10 47,15 74,15 29,0 55,-5 78,-15 24,-10 44,-23 60,-39 16,-16 29,-36 38,-59 8,-23 13,-47 13,-74 0,-55 -17,-100 -50,-134 -34,-35 -80,-52 -138,-52zm665 -38l3 0c12,-27 34,-51 65,-72 31,-22 72,-33 121,-33 42,0 78,7 108,21 29,15 53,33 72,56 18,23 31,49 39,79 8,30 12,61 12,94l0 400 -158 0 0 -321c0,-17 -1,-37 -3,-59 -2,-21 -6,-41 -14,-60 -7,-19 -19,-35 -35,-48 -16,-13 -37,-19 -65,-19 -26,0 -48,4 -66,13 -19,9 -33,21 -45,36 -12,15 -21,32 -26,51 -5,20 -8,40 -8,61l0 346 -159 0 0 -999 159 0 0 454zm926 87c-30,-43 -72,-65 -124,-65 -21,0 -42,5 -62,16 -20,11 -30,28 -30,52 0,19 8,33 25,42 16,9 38,16 63,22 26,6 53,13 83,19 29,7 57,17 82,31 26,13 47,32 64,56 17,24 25,56 25,98 0,38 -8,70 -25,96 -16,26 -37,46 -63,62 -26,16 -55,28 -88,35 -32,7 -65,10 -98,10 -49,0 -94,-7 -136,-21 -41,-14 -78,-40 -111,-77l106 -99c20,23 42,42 65,57 24,14 52,21 86,21 11,0 23,-1 35,-4 13,-2 24,-7 35,-13 10,-6 19,-14 25,-23 7,-9 10,-20 10,-32 0,-22 -8,-39 -25,-49 -17,-11 -38,-19 -63,-26 -26,-7 -53,-13 -83,-19 -29,-5 -57,-14 -82,-27 -26,-13 -47,-31 -64,-54 -17,-23 -25,-54 -25,-95 0,-35 7,-66 22,-92 14,-26 34,-47 57,-64 24,-17 51,-29 82,-37 31,-8 62,-12 94,-12 42,0 84,8 126,22 41,15 75,39 100,75l-106 95zm670 14c-18,-19 -37,-34 -58,-46 -20,-11 -41,-17 -62,-17 -29,0 -55,5 -78,16 -23,10 -42,25 -59,42 -16,18 -28,38 -37,61 -8,23 -12,47 -12,71 0,25 4,49 12,72 9,23 21,43 37,60 17,18 36,32 59,43 23,10 49,16 78,16 25,0 48,-6 69,-16 21,-10 39,-25 54,-44l106 114c-16,16 -34,29 -55,41 -21,11 -42,20 -63,27 -21,7 -41,13 -61,16 -19,3 -36,4 -50,4 -47,0 -92,-8 -135,-24 -42,-15 -78,-38 -109,-67 -31,-29 -56,-64 -74,-105 -18,-41 -27,-87 -27,-137 0,-50 9,-96 27,-137 18,-40 43,-75 74,-105 31,-29 67,-51 109,-67 43,-16 88,-24 135,-24 41,0 81,8 122,23 41,16 77,40 108,74l-110 109zm351 -101l2 0c13,-27 35,-51 66,-72 31,-22 71,-33 121,-33 42,0 78,7 107,21 30,15 54,33 72,56 19,23 32,49 40,79 8,30 12,61 12,94l0 400 -159 0 0 -321c0,-17 -1,-37 -2,-59 -2,-21 -7,-41 -14,-60 -8,-19 -19,-35 -35,-48 -16,-13 -38,-19 -65,-19 -26,0 -49,4 -67,13 -18,9 -33,21 -45,36 -11,15 -20,32 -25,51 -6,20 -8,40 -8,61l0 346 -159 0 0 -999 159 0 0 454zm524 228c0,-50 9,-96 27,-137 18,-40 43,-75 74,-105 31,-29 67,-51 109,-67 43,-16 88,-24 135,-24 48,0 93,8 135,24 42,16 79,38 110,67 30,30 55,65 73,105 18,41 27,87 27,137 0,50 -9,96 -27,137 -18,41 -43,76 -73,105 -31,29 -68,52 -110,67 -42,16 -87,24 -135,24 -47,0 -92,-8 -135,-24 -42,-15 -78,-38 -109,-67 -31,-29 -56,-64 -74,-105 -18,-41 -27,-87 -27,-137zm159 0c0,25 4,49 12,72 9,23 21,43 37,60 17,18 36,32 59,43 23,10 49,16 78,16 29,0 55,-6 78,-16 23,-11 43,-25 59,-43 16,-17 29,-37 37,-60 8,-23 12,-47 12,-72 0,-24 -4,-48 -12,-71 -8,-23 -21,-43 -37,-61 -16,-17 -36,-32 -59,-42 -23,-11 -49,-16 -78,-16 -29,0 -55,5 -78,16 -23,10 -42,25 -59,42 -16,18 -28,38 -37,61 -8,23 -12,47 -12,71zm636 0c0,-50 9,-96 27,-137 18,-40 42,-75 73,-105 31,-29 67,-51 110,-67 42,-16 87,-24 134,-24 48,0 93,8 135,24 42,16 79,38 110,67 31,30 55,65 73,105 18,41 27,87 27,137 0,50 -9,96 -27,137 -18,41 -42,76 -73,105 -31,29 -68,52 -110,67 -42,16 -87,24 -135,24 -47,0 -92,-8 -134,-24 -43,-15 -79,-38 -110,-67 -31,-29 -55,-64 -73,-105 -18,-41 -27,-87 -27,-137zm158 0c0,25 4,49 13,72 8,23 20,43 37,60 16,18 36,32 58,43 23,10 49,16 78,16 30,0 55,-6 78,-16 23,-11 43,-25 59,-43 16,-17 29,-37 37,-60 9,-23 13,-47 13,-72 0,-24 -4,-48 -13,-71 -8,-23 -21,-43 -37,-61 -16,-17 -36,-32 -59,-42 -23,-11 -48,-16 -78,-16 -29,0 -55,5 -78,16 -22,10 -42,25 -58,42 -17,18 -29,38 -37,61 -9,23 -13,47 -13,71zm645 -682l158 0 0 999 -158 0 0 -999z"/>
  </g>
 </g>
</svg>
