<?xml version="1.0" encoding="UTF-8" standalone="no"?>
<!-- Created with Inkscape (http://www.inkscape.org/) -->

<svg
   xmlns:dc="http://purl.org/dc/elements/1.1/"
   xmlns:cc="http://creativecommons.org/ns#"
   xmlns:rdf="http://www.w3.org/1999/02/22-rdf-syntax-ns#"
   xmlns:svg="http://www.w3.org/2000/svg"
   xmlns="http://www.w3.org/2000/svg"
   xmlns:sodipodi="http://sodipodi.sourceforge.net/DTD/sodipodi-0.dtd"
   xmlns:inkscape="http://www.inkscape.org/namespaces/inkscape"
   width="62.194511mm"
   height="16.796631mm"
   viewBox="0 0 62.194511 16.796631"
   version="1.1"
   id="svg223"
   inkscape:version="0.92.3 (2405546, 2018-03-11)"
   sodipodi:docname="logo_qhighschool_white.svg">
  <defs
     id="defs217" />
  <sodipodi:namedview
     id="base"
     pagecolor="#ffffff"
     bordercolor="#666666"
     borderopacity="1.0"
     inkscape:pageopacity="0.0"
     inkscape:pageshadow="2"
     inkscape:zoom="0.35"
     inkscape:cx="-663.89565"
     inkscape:cy="-179.68691"
     inkscape:document-units="mm"
     inkscape:current-layer="layer1"
     showgrid="false"
     inkscape:window-width="1920"
     inkscape:window-height="1015"
     inkscape:window-x="0"
     inkscape:window-y="0"
     inkscape:window-maximized="1" />
  <metadata
     id="metadata220">
    <rdf:RDF>
      <cc:Work
         rdf:about="">
        <dc:format>image/svg+xml</dc:format>
        <dc:type
           rdf:resource="http://purl.org/dc/dcmitype/StillImage" />
        <dc:title></dc:title>
      </cc:Work>
    </rdf:RDF>
  </metadata>
  <g
     inkscape:label="Layer 1"
     inkscape:groupmode="layer"
     id="layer1"
     transform="translate(-106.48608,-86.006448)">
    <g
       transform="matrix(0.35277777,0,0,-0.35277777,29.935596,209.49186)"
       id="g110"
       style="fill:#ffffff;fill-opacity:1">
      <path
         d="m 318.7259,304.6221 h -1.4911 v 2.2646 h -1.491 v -2.2646 h -1.491 v 4.5408 h 4.4731 z m -2.9821,-2.1972 h 1.491 v 0.7399 h 2.2312 c 0.426,0 0.7509,0.3251 0.7509,0.7398 v 5.9644 c 0,0.4263 -0.3249,0.7515 -0.7509,0.7515 h -5.9644 c -0.4144,0 -0.7398,-0.3252 -0.7398,-0.7515 v -5.9644 c 0,-0.4147 0.3251,-0.7398 0.7398,-0.7398 h 2.2422 z"
         style="fill:#ffffff;fill-opacity:1;fill-rule:evenodd;stroke:none"
         id="path112"
         inkscape:connector-curvature="0" />
      <path
         d="m 329.1636,304.6221 h -4.4725 v 5.9984 h -1.4922 v -6.7159 c 0,-0.4147 0.3254,-0.7398 0.7402,-0.7398 h 5.9646 c 0.4261,0 0.7509,0.3251 0.7509,0.7398 v 6.7159 h -1.491 z"
         style="fill:#ffffff;fill-opacity:1;fill-rule:evenodd;stroke:none"
         id="path114"
         inkscape:connector-curvature="0" />
      <path
         d="m 339.6019,307.6268 h -4.4736 v 1.5361 h 4.4736 z m 0.7401,2.9937 h -5.9646 c -0.4148,0 -0.7402,-0.3252 -0.7402,-0.7515 v -6.7042 h 1.4911 v 2.9934 h 4.4736 v -2.9934 h 1.491 v 6.7042 c 0,0.4263 -0.3254,0.7515 -0.7509,0.7515"
         style="fill:#ffffff;fill-opacity:1;fill-rule:evenodd;stroke:none"
         id="path116"
         inkscape:connector-curvature="0" />
      <path
         d="m 350.0396,305.1604 -0.538,-0.5383 h -3.935 v 4.5408 h 3.935 l 0.538,-0.5383 z m -5.9641,5.4601 v -7.4557 h 6.1098 l 1.3453,1.3456 v 4.7647 l -1.3453,1.3454 z"
         style="fill:#ffffff;fill-opacity:1;fill-rule:evenodd;stroke:none"
         id="path118"
         inkscape:connector-curvature="0" />
      <path
         d="m 360.4762,307.6044 h -4.4739 v 1.5585 h 4.4739 z m 0.7399,3.0161 h -6.7048 v -7.4557 h 1.491 v 2.9823 h 1.8505 l 2.2308,-2.9823 h 1.8834 l -2.242,2.9823 h 1.4911 c 0.426,0 0.7509,0.3252 0.7509,0.7396 v 2.9823 c 0,0.4263 -0.3249,0.7515 -0.7509,0.7515"
         style="fill:#ffffff;fill-opacity:1;fill-rule:evenodd;stroke:none"
         id="path120"
         inkscape:connector-curvature="0" />
      <path
         d="m 370.9137,307.6268 h -4.4734 v 1.5361 h 4.4734 z m 0.7398,2.9937 h -5.9646 c -0.4145,0 -0.7399,-0.3252 -0.7399,-0.7515 l 3e-4,-6.7042 h 1.491 v 2.9934 h 4.4734 v -2.9934 h 1.491 v 6.7042 c 0,0.4263 -0.3251,0.7515 -0.7512,0.7515"
         style="fill:#ffffff;fill-opacity:1;fill-rule:evenodd;stroke:none"
         id="path122"
         inkscape:connector-curvature="0" />
      <path
         d="m 381.3517,307.6268 h -4.4737 v 1.5361 h 4.4737 z m 0.7395,2.9937 h -5.9646 c -0.4147,0 -0.7401,-0.3252 -0.7401,-0.7515 v -6.7042 h 1.4915 v 2.9934 h 4.4737 v -2.9934 h 1.4913 v 6.7042 c 0,0.4263 -0.3257,0.7515 -0.7518,0.7515"
         style="fill:#ffffff;fill-opacity:1;fill-rule:evenodd;stroke:none"
         id="path124"
         inkscape:connector-curvature="0" />
      <path
         d="m 392.5293,310.6205 h -5.9647 c -0.4147,0 -0.7398,-0.3252 -0.7398,-0.7515 v -6.7042 h 1.491 v 5.9981 h 1.4913 v -4.5071 h 1.491 v 4.5071 h 1.491 v -5.9981 h 1.4913 v 6.7042 c 0,0.4263 -0.3254,0.7515 -0.7511,0.7515"
         style="fill:#ffffff;fill-opacity:1;fill-rule:evenodd;stroke:none"
         id="path126"
         inkscape:connector-curvature="0" />
    </g>
    <path
       d="m 115.72981,95.30066 h -2.48931 v -3.417182 h -2.05341 v 3.417182 h -2.64749 v -7.291493 h 7.19021 z m 2.1481,-8.25888 c 0,-0.54931 -0.53982,-1.035332 -1.12991,-1.035332 h -9.24359 c -0.57111,0 -1.01833,0.45473 -1.01833,1.035332 v 9.23297 c 0,0.571218 0.44722,1.018505 1.01833,1.018505 h 3.68268 v 1.116401 h 2.05341 v -1.116401 h 3.5075 c 0.58049,0 1.03508,-0.447287 1.03508,-1.018505 z"
       style="fill:#ffffff;fill-opacity:1;fill-rule:evenodd;stroke:none;stroke-width:0.35277775"
       id="path128"
       inkscape:connector-curvature="0" />
    <path
       d="m 121.1011,93.035968 h 0.0206 c 0.0962,-0.206092 0.26627,-0.393417 0.51029,-0.561798 0.24391,-0.168417 0.55831,-0.252519 0.94319,-0.252519 0.32981,0 0.60991,0.05493 0.8401,0.164924 0.23022,0.10989 0.41751,0.254282 0.5618,0.432893 0.14432,0.178683 0.2474,0.384881 0.30921,0.61849 0.0619,0.233716 0.0928,0.477697 0.0928,0.731909 v 3.123388 h -1.23702 v -2.504898 c 0,-0.137407 -0.007,-0.290301 -0.0206,-0.458682 -0.0137,-0.168416 -0.0498,-0.326425 -0.1082,-0.474204 -0.0585,-0.147708 -0.1495,-0.271392 -0.27319,-0.371122 -0.12372,-0.09959 -0.2921,-0.149402 -0.5051,-0.149402 -0.2062,0 -0.3797,0.03432 -0.5206,0.103011 -0.1409,0.06879 -0.2577,0.161502 -0.35052,0.278413 -0.0927,0.116805 -0.1597,0.25079 -0.20098,0.40199 -0.0412,0.151201 -0.0618,0.30921 -0.0618,0.474204 v 2.70069 h -1.23701 v -7.793002 h 1.23702 z m 4.4928,-0.690597 h 1.23698 v 4.947884 h -1.23698 z m -0.17519,-1.680316 c 0,-0.199284 0.0739,-0.37278 0.22158,-0.520594 0.14771,-0.147709 0.335,-0.22158 0.5618,-0.22158 0.2268,0 0.41751,0.07038 0.5721,0.211279 0.15462,0.140899 0.23191,0.317887 0.23191,0.530895 0,0.213007 -0.0773,0.389996 -0.23191,0.530895 -0.15459,0.140899 -0.3453,0.211314 -0.5721,0.211314 -0.2268,0 -0.41409,-0.07391 -0.5618,-0.221615 -0.14771,-0.147779 -0.22158,-0.321275 -0.22158,-0.520594 z m 7.73589,1.680316 v 4.504689 c 0,0.446688 -0.055,0.850407 -0.165,1.211193 -0.10992,0.360821 -0.28,0.666608 -0.51022,0.917504 -0.23019,0.250789 -0.52059,0.444923 -0.87108,0.582401 -0.35041,0.137407 -0.7662,0.206092 -1.24732,0.206092 -0.46037,0 -0.89679,-0.05838 -1.30908,-0.175189 -0.41229,-0.116805 -0.79372,-0.329882 -1.1442,-0.639092 l 0.74221,-1.010215 c 0.2474,0.226801 0.50507,0.402026 0.77307,0.52571 0.26801,0.123684 0.57732,0.18549 0.9277,0.18549 0.29553,0 0.54473,-0.0412 0.7474,-0.123684 0.2027,-0.08241 0.36421,-0.195791 0.4845,-0.340112 0.12023,-0.144287 0.2061,-0.317889 0.25771,-0.520595 0.0515,-0.202706 0.0773,-0.427813 0.0773,-0.675216 v -0.360786 h -0.0206 c -0.17868,0.240488 -0.41579,0.421005 -0.71127,0.541196 -0.29552,0.120297 -0.59793,0.180411 -0.9071,0.180411 -0.37112,0 -0.70792,-0.06699 -1.01021,-0.201013 -0.30241,-0.133985 -0.5618,-0.314396 -0.7783,-0.541196 -0.2165,-0.226801 -0.38312,-0.494806 -0.49999,-0.803981 -0.11681,-0.309316 -0.17523,-0.639198 -0.17523,-0.989718 0,-0.364208 0.055,-0.704286 0.16492,-1.02048 0.11,-0.316124 0.2715,-0.591009 0.48451,-0.824618 0.21308,-0.233716 0.46909,-0.417513 0.768,-0.551498 0.29887,-0.133985 0.64078,-0.201013 1.0257,-0.201013 0.35038,0 0.67687,0.06872 0.97917,0.206128 0.3024,0.137478 0.54303,0.357399 0.7216,0.659801 h 0.0206 v -0.742209 z m -2.63892,0.989576 c -0.21989,0 -0.41917,0.03602 -0.59789,0.108233 -0.17868,0.07207 -0.33161,0.171767 -0.45868,0.298873 -0.12721,0.127212 -0.2268,0.281799 -0.29902,0.463903 -0.0721,0.182104 -0.10819,0.383116 -0.10819,0.603003 0,0.199319 0.0361,0.384915 0.10819,0.556718 0.0722,0.171803 0.17361,0.323004 0.3041,0.453602 0.1306,0.130493 0.28522,0.233574 0.4639,0.309175 0.17872,0.0756 0.37109,0.113418 0.57729,0.113418 0.22673,0 0.4312,-0.03782 0.6133,-0.113418 0.1821,-0.0756 0.33673,-0.176883 0.4639,-0.304095 0.12711,-0.127106 0.225,-0.28 0.2938,-0.458682 0.0687,-0.178717 0.10301,-0.371122 0.10301,-0.57732 0,-0.432894 -0.13049,-0.783379 -0.39169,-1.051384 -0.26109,-0.268005 -0.61849,-0.402026 -1.07202,-0.402026 z m 5.18633,-0.298979 h 0.0206 c 0.0962,-0.206092 0.26627,-0.393417 0.51018,-0.561798 0.24402,-0.168417 0.55841,-0.252519 0.94319,-0.252519 0.32992,0 0.61002,0.05493 0.84021,0.164924 0.23019,0.10989 0.41741,0.254282 0.5618,0.432893 0.14429,0.178683 0.2474,0.384881 0.30921,0.61849 0.0618,0.233716 0.0928,0.477697 0.0928,0.731909 v 3.123388 h -1.23698 v -2.504898 c 0,-0.137407 -0.007,-0.290301 -0.0206,-0.458682 -0.0138,-0.168416 -0.0499,-0.326425 -0.1083,-0.474204 -0.0584,-0.147708 -0.1494,-0.271392 -0.27309,-0.371122 -0.12372,-0.09959 -0.2921,-0.149402 -0.5051,-0.149402 -0.2062,0 -0.3797,0.03432 -0.5206,0.103011 -0.1409,0.06879 -0.2577,0.161502 -0.35052,0.278413 -0.0928,0.116805 -0.15981,0.25079 -0.20101,0.40199 -0.0412,0.151201 -0.0618,0.30921 -0.0618,0.474204 v 2.70069 h -1.23702 v -7.793002 h 1.23702 z m 7.22728,0.680403 c -0.24049,-0.336797 -0.56349,-0.505108 -0.96901,-0.505108 -0.16489,0 -0.32639,0.0412 -0.4845,0.123684 -0.15798,0.08241 -0.23707,0.21643 -0.23707,0.402026 0,0.1512 0.0653,0.261091 0.1959,0.329777 0.1306,0.06883 0.29548,0.127211 0.49477,0.17533 0.19932,0.04808 0.41402,0.0979 0.64431,0.149472 0.23019,0.0515 0.44489,0.130528 0.64421,0.237102 0.19928,0.106504 0.36421,0.252518 0.4948,0.438115 0.1306,0.18549 0.1959,0.439808 0.1959,0.762811 0,0.295487 -0.0636,0.544583 -0.19071,0.747289 -0.12721,0.202706 -0.2921,0.366007 -0.4948,0.489691 -0.20278,0.123719 -0.43131,0.213008 -0.68549,0.268005 -0.25431,0.055 -0.5086,0.08241 -0.76281,0.08241 -0.38492,0 -0.73878,-0.05493 -1.06179,-0.164923 -0.323,-0.109891 -0.61161,-0.309175 -0.86589,-0.597888 l 0.82469,-0.773113 c 0.158,0.178718 0.32808,0.324697 0.51018,0.438115 0.18211,0.113383 0.40383,0.17011 0.66492,0.17011 0.0894,0 0.1821,-0.0103 0.2783,-0.0309 0.0962,-0.0206 0.1856,-0.055 0.26808,-0.103117 0.0824,-0.04808 0.1494,-0.108302 0.20102,-0.180375 0.0515,-0.07221 0.0773,-0.156421 0.0773,-0.252624 0,-0.171803 -0.0653,-0.298909 -0.1959,-0.381388 -0.13049,-0.08241 -0.29549,-0.149407 -0.4948,-0.201018 -0.19929,-0.05151 -0.41399,-0.09959 -0.64421,-0.144286 -0.2303,-0.0447 -0.445,-0.116805 -0.64428,-0.2165 -0.19932,-0.09959 -0.36421,-0.238795 -0.49481,-0.417512 -0.13059,-0.178576 -0.19589,-0.425979 -0.19589,-0.742209 0,-0.274779 0.0567,-0.51368 0.1701,-0.716386 0.11339,-0.202706 0.26289,-0.369394 0.44839,-0.499886 0.18559,-0.130599 0.3986,-0.226801 0.63909,-0.288714 0.24063,-0.06181 0.4845,-0.09271 0.73191,-0.09271 0.32991,0 0.6563,0.05673 0.97931,0.170004 0.323,0.113418 0.5842,0.307622 0.78341,0.582507 z m 5.2275,0.113382 c -0.14429,-0.1512 -0.29549,-0.271497 -0.4536,-0.360785 -0.15801,-0.08939 -0.31951,-0.134021 -0.4844,-0.134021 -0.2268,0 -0.42958,0.0412 -0.60819,0.12372 -0.17872,0.08241 -0.33161,0.192405 -0.45872,0.329811 -0.12717,0.137478 -0.22338,0.295487 -0.28868,0.474169 -0.0653,0.178717 -0.0979,0.364208 -0.0979,0.556613 0,0.192511 0.0326,0.378001 0.0979,0.556718 0.0653,0.178682 0.16151,0.336691 0.28868,0.474169 0.12711,0.137407 0.28,0.247403 0.45872,0.329918 0.17861,0.08241 0.38139,0.123613 0.60819,0.123613 0.1924,0 0.37112,-0.03951 0.53601,-0.118498 0.16489,-0.07902 0.30579,-0.194133 0.42259,-0.345299 l 0.82469,0.886496 c -0.12368,0.123683 -0.26628,0.230187 -0.42778,0.319475 -0.1615,0.08943 -0.32469,0.161608 -0.48962,0.2165 -0.16499,0.055 -0.323,0.09451 -0.4742,0.118604 -0.1512,0.02402 -0.2818,0.03602 -0.39169,0.03602 -0.37109,0 -0.72161,-0.06181 -1.05149,-0.185525 -0.32981,-0.123684 -0.61511,-0.298874 -0.85559,-0.525675 -0.24053,-0.2268 -0.4312,-0.500027 -0.5721,-0.819502 -0.1409,-0.319619 -0.21132,-0.675219 -0.21132,-1.067014 0,-0.391689 0.0704,-0.747289 0.21132,-1.066906 0.1409,-0.319476 0.33157,-0.592702 0.5721,-0.819503 0.24048,-0.226695 0.52578,-0.40199 0.85559,-0.525674 0.32988,-0.123719 0.6804,-0.185526 1.05149,-0.185526 0.31609,0 0.6339,0.06011 0.95349,0.180411 0.31951,0.120191 0.59961,0.310903 0.8401,0.5721 z m 2.7329,-0.793785 h 0.0207 c 0.0962,-0.206092 0.26631,-0.393417 0.51018,-0.561798 0.24402,-0.168417 0.55842,-0.252519 0.94323,-0.252519 0.32988,0 0.60988,0.05493 0.8401,0.164924 0.23029,0.10989 0.41748,0.254282 0.5618,0.432893 0.14439,0.178683 0.24737,0.384881 0.30928,0.61849 0.0618,0.233716 0.0928,0.477697 0.0928,0.731909 v 3.123388 h -1.23702 v -2.504898 c 0,-0.137407 -0.007,-0.290301 -0.0206,-0.458682 -0.0138,-0.168416 -0.0499,-0.326425 -0.10831,-0.474204 -0.0584,-0.147708 -0.1495,-0.271392 -0.27308,-0.371122 -0.12372,-0.09959 -0.2921,-0.149402 -0.50511,-0.149402 -0.2062,0 -0.37969,0.03432 -0.5206,0.103011 -0.14089,0.06879 -0.2577,0.161502 -0.35052,0.278413 -0.0928,0.116805 -0.15977,0.25079 -0.20097,0.40199 -0.0412,0.151201 -0.0619,0.30921 -0.0619,0.474204 v 2.70069 h -1.23691 v -7.793002 h 1.2369 z m 4.09201,1.783292 c 0,-0.391689 0.0705,-0.747289 0.21138,-1.066906 0.1408,-0.319476 0.33161,-0.592702 0.5721,-0.819503 0.24053,-0.226695 0.52571,-0.40199 0.85563,-0.525674 0.32978,-0.123719 0.6803,-0.185526 1.05138,-0.185526 0.37109,0 0.72161,0.06181 1.05139,0.185526 0.32992,0.123684 0.6151,0.298979 0.85562,0.525674 0.24049,0.226801 0.43131,0.500027 0.5721,0.819503 0.1409,0.319617 0.21139,0.675217 0.21139,1.066906 0,0.391795 -0.0705,0.747395 -0.21139,1.067012 -0.14079,0.319475 -0.33161,0.592702 -0.5721,0.819502 -0.24052,0.226695 -0.5257,0.401991 -0.85562,0.525675 -0.32978,0.123719 -0.6803,0.185525 -1.05139,0.185525 -0.37108,0 -0.7216,-0.06181 -1.05138,-0.185525 -0.32992,-0.123684 -0.6151,-0.29898 -0.85563,-0.525675 -0.24049,-0.2268 -0.4313,-0.500027 -0.5721,-0.819502 -0.1409,-0.319617 -0.21138,-0.675217 -0.21138,-1.067012 z m 1.23698,0 c 0,0.192511 0.0327,0.378001 0.098,0.556718 0.0652,0.178682 0.1615,0.336691 0.28861,0.474169 0.1271,0.137407 0.2801,0.247403 0.45871,0.329918 0.17868,0.08241 0.38139,0.123613 0.60819,0.123613 0.2268,0 0.42951,-0.0412 0.60819,-0.123613 0.17861,-0.08252 0.33161,-0.192511 0.45872,-0.329918 0.1271,-0.137478 0.22338,-0.295487 0.2886,-0.474169 0.0653,-0.178717 0.098,-0.364207 0.098,-0.556718 0,-0.192405 -0.0327,-0.377896 -0.098,-0.556613 -0.0652,-0.178682 -0.1615,-0.336691 -0.2886,-0.474169 -0.12711,-0.137406 -0.28,-0.247402 -0.45872,-0.329811 -0.17868,-0.08252 -0.38139,-0.12372 -0.60819,-0.12372 -0.2268,0 -0.4295,0.0412 -0.60819,0.12372 -0.17871,0.08241 -0.33161,0.192405 -0.45871,0.329811 -0.12711,0.137478 -0.22338,0.295487 -0.28861,0.474169 -0.0653,0.178717 -0.098,0.364208 -0.098,0.556613 z m 4.95952,0 c 0,-0.391689 0.0705,-0.747289 0.21139,-1.066906 0.14079,-0.319476 0.33161,-0.592702 0.5721,-0.819503 0.24049,-0.226695 0.52571,-0.40199 0.85559,-0.525674 0.32981,-0.123719 0.6803,-0.185526 1.05142,-0.185526 0.37109,0 0.72161,0.06181 1.05138,0.185526 0.32992,0.123684 0.61511,0.298979 0.85563,0.525674 0.24049,0.226801 0.43127,0.500027 0.5721,0.819503 0.1409,0.319617 0.21138,0.675217 0.21138,1.066906 0,0.391795 -0.0705,0.747395 -0.21138,1.067012 -0.14083,0.319475 -0.33161,0.592702 -0.5721,0.819502 -0.24052,0.226695 -0.52571,0.401991 -0.85563,0.525675 -0.32977,0.123719 -0.68029,0.185525 -1.05138,0.185525 -0.37112,0 -0.72161,-0.06181 -1.05142,-0.185525 -0.32988,-0.123684 -0.6151,-0.29898 -0.85559,-0.525675 -0.24049,-0.2268 -0.43131,-0.500027 -0.5721,-0.819502 -0.1409,-0.319617 -0.21139,-0.675217 -0.21139,-1.067012 z m 1.23698,0 c 0,0.192511 0.0327,0.378001 0.098,0.556718 0.0652,0.178682 0.1615,0.336691 0.28861,0.474169 0.12711,0.137407 0.28011,0.247403 0.45872,0.329918 0.17868,0.08241 0.38138,0.123613 0.60819,0.123613 0.2268,0 0.4295,-0.0412 0.60819,-0.123613 0.17861,-0.08252 0.33161,-0.192511 0.45871,-0.329918 0.12707,-0.137478 0.22338,-0.295487 0.28857,-0.474169 0.0653,-0.178717 0.098,-0.364207 0.098,-0.556718 0,-0.192405 -0.0327,-0.377896 -0.098,-0.556613 -0.0652,-0.178682 -0.1615,-0.336691 -0.28857,-0.474169 -0.1271,-0.137406 -0.27999,-0.247402 -0.45871,-0.329811 -0.17868,-0.08252 -0.38139,-0.12372 -0.60819,-0.12372 -0.2268,0 -0.42951,0.0412 -0.60819,0.12372 -0.17872,0.08241 -0.33161,0.192405 -0.45872,0.329811 -0.1271,0.137478 -0.22341,0.295487 -0.28861,0.474169 -0.0653,0.178717 -0.098,0.364208 -0.098,0.556613 z m 5.02843,-5.319007 h 1.23698 v 7.793002 h -1.23698 z"
       style="fill:#ffffff;fill-opacity:1;fill-rule:nonzero;stroke:none;stroke-width:0.35277775"
       id="path130"
       inkscape:connector-curvature="0" />
  </g>
</svg>
